PathFileType	4	(X/Y/Z)	 control3min.trc
DataRate	CameraRate	NumFrames	NumMarkers	Units	OrigDataRate	OrigDataStartFrame	OrigNumFrames
200	200	8	43	m	200	626	1000
Frame#	Time	C7			LSH			RSH			MAN			RASI			LASI			HIPR			HIPL			RPSI			LPSI			COX			RTHI1			RTHI2			RTHI3			RTHI4			RLKN			RMKN			RSHA1			RSHA2			RSHA3			RSHA4			RLMAL			RMMAL			RHEEL			RMET5			RMET1			RTOE			LTHI1			LTHI2			LTHI3			LTHI4			LLKN			LMKN			LSHA1			LSHA2			LSHA3			LSHA4			LLMAL			LMMAL			LHEEL			LMET5			LMET1			LTOE			
		X1	Y1	Z1	X2	Y2	Z2	X3	Y3	Z3	X4	Y4	Z4	X5	Y5	Z5	X6	Y6	Z6	X7	Y7	Z7	X8	Y8	Z8	X9	Y9	Z9	X10	Y10	Z10	X11	Y11	Z11	X12	Y12	Z12	X13	Y13	Z13	X14	Y14	Z14	X15	Y15	Z15	X16	Y16	Z16	X17	Y17	Z17	X18	Y18	Z18	X19	Y19	Z19	X20	Y20	Z20	X21	Y21	Z21	X22	Y22	Z22	X23	Y23	Z23	X24	Y24	Z24	X25	Y25	Z25	X26	Y26	Z26	X27	Y27	Z27	X28	Y28	Z28	X29	Y29	Z29	X30	Y30	Z30	X31	Y31	Z31	X32	Y32	Z32	X33	Y33	Z33	X34	Y34	Z34	X35	Y35	Z35	X36	Y36	Z36	X37	Y37	Z37	X38	Y38	Z38	X39	Y39	Z39	X40	Y40	Z40	X41	Y41	Z41	X42	Y42	Z42	X43	Y43	Z43	
626	3.1300	-0.290663	1.515547	-0.533538	-0.201052	1.499858	-0.722427	-0.199773	1.486256	-0.335420	-0.151681	1.446500	-0.530005	-0.127411	1.019065	-0.409824	-0.126880	1.023399	-0.655462	-0.210512	1.070516	-0.371730	-0.208318	1.069754	-0.692528	-0.310006	1.051564	-0.481556	-0.309678	1.049515	-0.576960	-0.313566	1.050029	-0.530939	-0.208463	0.768670	-0.334475	-0.194787	0.710060	-0.331220	-0.131209	0.721555	-0.325541	-0.136658	0.782846	-0.328435	-0.173106	0.493840	-0.331761	-0.154208	0.465735	-0.447981	-0.260568	0.324868	-0.312518	-0.283141	0.289237	-0.319884	-0.212752	0.298793	-0.315652	-0.226269	0.261881	-0.324458	-0.333590	0.122194	-0.335433	-0.289353	0.117312	-0.411762	-0.382175	0.108256	-0.391052	-0.246782	0.047132	-0.291700	-0.188865	0.051345	-0.341712	-0.163804	0.041802	-0.335066	-0.211339	0.765814	-0.719678	-0.196635	0.706184	-0.723218	-0.133374	0.716229	-0.734190	-0.140654	0.775600	-0.732509	-0.157028	0.507476	-0.723817	-0.140079	0.489700	-0.607408	-0.278496	0.300147	-0.731486	-0.294901	0.264189	-0.725593	-0.238042	0.241909	-0.726034	-0.227935	0.281990	-0.737209	-0.330524	0.127606	-0.723179	-0.296748	0.126021	-0.642082	-0.384716	0.108119	-0.663978	-0.238577	0.048440	-0.756790	-0.183739	0.056327	-0.694975	-0.159632	0.047257	-0.705155	
627	3.1350	-0.290535	1.513604	-0.533525	-0.200680	1.497737	-0.722448	-0.199489	1.484085	-0.335336	-0.151455	1.444317	-0.529974	-0.128096	1.016911	-0.409721	-0.127509	1.021327	-0.655627	-0.211383	1.068157	-0.371632	-0.209325	1.067438	-0.692521	-0.310700	1.049329	-0.481630	-0.310347	1.047288	-0.576952	-0.314232	1.047752	-0.530969	-0.208266	0.766615	-0.334330	-0.194376	0.708030	-0.331054	-0.130847	0.719721	-0.325694	-0.136468	0.780986	-0.328640	-0.172490	0.491905	-0.331624	-0.153496	0.463875	-0.447804	-0.260774	0.323327	-0.312918	-0.283605	0.287902	-0.320189	-0.213047	0.297114	-0.315882	-0.226827	0.260231	-0.324662	-0.334503	0.120932	-0.336021	-0.290173	0.116069	-0.412364	-0.383066	0.107120	-0.391776	-0.247984	0.045870	-0.292163	-0.189829	0.050111	-0.342325	-0.164757	0.040504	-0.335617	-0.210777	0.763819	-0.719848	-0.195887	0.704221	-0.723304	-0.132584	0.714456	-0.733879	-0.140040	0.773795	-0.732184	-0.156131	0.505675	-0.723807	-0.139310	0.487788	-0.607463	-0.278683	0.299033	-0.731787	-0.295291	0.263165	-0.725915	-0.238552	0.240578	-0.726187	-0.228206	0.280604	-0.737334	-0.331423	0.126562	-0.723546	-0.298050	0.125023	-0.642291	-0.386052	0.107083	-0.664640	-0.239392	0.047498	-0.756679	-0.184890	0.055351	-0.694551	-0.160671	0.046218	-0.704533	
628	3.1400	-0.290390	1.511411	-0.533503	-0.200293	1.495334	-0.722483	-0.199194	1.481635	-0.335233	-0.151227	1.441897	-0.529942	-0.128813	1.014511	-0.409599	-0.128168	1.019010	-0.655810	-0.212290	1.065529	-0.371502	-0.210399	1.064809	-0.692536	-0.311435	1.046813	-0.481708	-0.311059	1.044754	-0.576939	-0.314937	1.045172	-0.531002	-0.208087	0.764361	-0.334166	-0.193979	0.705802	-0.330857	-0.130503	0.717691	-0.325825	-0.136310	0.778925	-0.328830	-0.171852	0.489787	-0.331502	-0.152761	0.461814	-0.447614	-0.261002	0.321626	-0.313198	-0.284030	0.286369	-0.320485	-0.213315	0.295231	-0.316066	-0.227364	0.258378	-0.324835	-0.335377	0.119451	-0.336602	-0.290963	0.114640	-0.412969	-0.383919	0.105798	-0.392538	-0.249218	0.044514	-0.292466	-0.190690	0.048824	-0.342933	-0.165573	0.039162	-0.336202	-0.210226	0.761583	-0.720006	-0.195140	0.702027	-0.723398	-0.131802	0.712449	-0.733569	-0.139450	0.771772	-0.731866	-0.155196	0.503639	-0.723801	-0.138549	0.485662	-0.607515	-0.278765	0.297662	-0.732179	-0.295571	0.261890	-0.726333	-0.238965	0.238992	-0.726371	-0.228374	0.278952	-0.737486	-0.332294	0.125312	-0.723984	-0.299321	0.123841	-0.642585	-0.387353	0.105992	-0.665373	-0.240301	0.046114	-0.756579	-0.186094	0.053960	-0.694137	-0.161784	0.044709	-0.703922	
629	3.1450	-0.290224	1.508970	-0.533476	-0.199923	1.492642	-0.722547	-0.198888	1.478911	-0.335117	-0.151038	1.439228	-0.529923	-0.129561	1.011874	-0.409460	-0.128853	1.016460	-0.656009	-0.213226	1.062635	-0.371351	-0.211525	1.061884	-0.692569	-0.312210	1.044013	-0.481795	-0.311795	1.041927	-0.576913	-0.315677	1.042299	-0.531038	-0.207938	0.761909	-0.333981	-0.193620	0.703380	-0.330636	-0.130199	0.715468	-0.325930	-0.136198	0.776664	-0.329001	-0.171170	0.487476	-0.331357	-0.151996	0.459552	-0.447412	-0.261248	0.319744	-0.313345	-0.284408	0.284618	-0.320763	-0.213545	0.293147	-0.316198	-0.227864	0.256329	-0.324992	-0.336214	0.117751	-0.337209	-0.291721	0.113021	-0.413577	-0.384710	0.104235	-0.393329	-0.250428	0.043156	-0.292516	-0.191369	0.047623	-0.343506	-0.166169	0.037929	-0.336781	-0.209702	0.759107	-0.720154	-0.194416	0.699594	-0.723485	-0.131039	0.710207	-0.733255	-0.138897	0.769520	-0.731562	-0.154228	0.501378	-0.723809	-0.137804	0.483317	-0.607560	-0.278733	0.296037	-0.732665	-0.295741	0.260344	-0.726847	-0.239277	0.237141	-0.726597	-0.228430	0.277031	-0.737670	-0.333132	0.123843	-0.724493	-0.300548	0.122426	-0.642940	-0.388600	0.104823	-0.666176	-0.241307	0.044333	-0.756576	-0.187308	0.052224	-0.693678	-0.162958	0.042865	-0.703286	
630	3.1500	-0.290040	1.506285	-0.533447	-0.199554	1.489683	-0.722634	-0.198545	1.475922	-0.334992	-0.150858	1.436326	-0.529909	-0.130340	1.009018	-0.409313	-0.129551	1.013682	-0.656213	-0.214196	1.059506	-0.371190	-0.212681	1.058675	-0.692628	-0.313025	1.040944	-0.481894	-0.312555	1.038821	-0.576887	-0.316448	1.039147	-0.531078	-0.207852	0.759230	-0.333773	-0.193309	0.700756	-0.330384	-0.129938	0.713048	-0.326002	-0.136136	0.774209	-0.329143	-0.170452	0.484971	-0.331210	-0.151204	0.457095	-0.447185	-0.261501	0.317697	-0.313362	-0.284737	0.282658	-0.320997	-0.213731	0.290844	-0.316261	-0.228308	0.254074	-0.325112	-0.337069	0.115925	-0.337896	-0.292421	0.111210	-0.414168	-0.385436	0.102382	-0.394125	-0.251565	0.041890	-0.292236	-0.191826	0.046643	-0.343971	-0.166476	0.036954	-0.337330	-0.209223	0.756389	-0.720303	-0.193730	0.696916	-0.723576	-0.130311	0.707723	-0.732942	-0.138393	0.767037	-0.731278	-0.153228	0.498887	-0.723828	-0.137095	0.480761	-0.607593	-0.278589	0.294146	-0.733248	-0.295808	0.258537	-0.727459	-0.239487	0.235031	-0.726873	-0.228386	0.274834	-0.737888	-0.333944	0.122146	-0.725060	-0.301748	0.120799	-0.643353	-0.389792	0.103520	-0.667052	-0.242369	0.042278	-0.756772	-0.188490	0.050297	-0.693177	-0.164094	0.040852	-0.702568	
631	3.1550	-0.289831	1.503361	-0.533422	-0.199177	1.486460	-0.722737	-0.198175	1.472658	-0.334867	-0.150690	1.433181	-0.529901	-0.131149	1.005951	-0.409161	-0.130259	1.010686	-0.656418	-0.215204	1.056142	-0.371020	-0.213856	1.055207	-0.692714	-0.313871	1.037610	-0.482000	-0.313332	1.035437	-0.576857	-0.317251	1.035720	-0.531131	-0.207820	0.756337	-0.333532	-0.193054	0.697918	-0.330104	-0.129734	0.710444	-0.326024	-0.136143	0.771562	-0.329243	-0.169691	0.482281	-0.331042	-0.150375	0.454432	-0.446930	-0.261796	0.315524	-0.313176	-0.285029	0.280491	-0.321145	-0.213842	0.288313	-0.316248	-0.228662	0.251619	-0.325208	-0.337892	0.113958	-0.338585	-0.293061	0.109212	-0.414733	-0.386106	0.100219	-0.394892	-0.252524	0.040790	-0.291678	-0.192069	0.045900	-0.344277	-0.166510	0.036247	-0.337830	-0.208801	0.753427	-0.720467	-0.193093	0.694003	-0.723691	-0.129644	0.705008	-0.732645	-0.137951	0.764327	-0.731021	-0.152209	0.496164	-0.723855	-0.136414	0.477992	-0.607613	-0.278347	0.291987	-0.733923	-0.295783	0.256485	-0.728155	-0.239616	0.232676	-0.727200	-0.228249	0.272376	-0.738160	-0.334744	0.120223	-0.725687	-0.302925	0.118965	-0.643816	-0.390934	0.101997	-0.668001	-0.243422	0.040082	-0.757245	-0.189546	0.048339	-0.692659	-0.165081	0.038866	-0.701785	
632	3.1600	-0.289590	1.500211	-0.533399	-0.198812	1.482991	-0.722863	-0.197791	1.469151	-0.334730	-0.150526	1.429799	-0.529900	-0.131990	1.002678	-0.409010	-0.130968	1.007470	-0.656623	-0.216242	1.052554	-0.370846	-0.215035	1.051496	-0.692823	-0.314744	1.034026	-0.482117	-0.314127	1.031788	-0.576833	-0.318084	1.032027	-0.531199	-0.207856	0.753250	-0.333256	-0.192860	0.694882	-0.329795	-0.129587	0.707649	-0.325984	-0.136230	0.768730	-0.329279	-0.168883	0.479395	-0.330862	-0.149490	0.451570	-0.446649	-0.262013	0.313149	-0.312973	-0.285230	0.278147	-0.321281	-0.213907	0.285577	-0.316190	-0.228923	0.248979	-0.325275	-0.338685	0.111925	-0.339270	-0.293647	0.107025	-0.415251	-0.386728	0.097785	-0.395596	-0.253288	0.039833	-0.290910	-0.192122	0.045346	-0.344439	-0.166350	0.035749	-0.338188	-0.208457	0.750222	-0.720674	-0.192526	0.690845	-0.723834	-0.129054	0.702063	-0.732388	-0.137590	0.761380	-0.730805	-0.151160	0.493215	-0.723895	-0.135774	0.475026	-0.607631	-0.278035	0.289581	-0.734678	-0.295692	0.254185	-0.728920	-0.239683	0.230091	-0.727572	-0.228043	0.269679	-0.738488	-0.335533	0.118086	-0.726366	-0.304102	0.116919	-0.644316	-0.392044	0.100172	-0.669020	-0.244379	0.037911	-0.758083	-0.190422	0.046567	-0.692138	-0.165852	0.037129	-0.700954	
633	3.1650	-0.289320	1.496868	-0.533377	-0.198470	1.479293	-0.723010	-0.197416	1.465434	-0.334575	-0.150360	1.426186	-0.529907	-0.132862	0.999212	-0.408865	-0.131673	1.004044	-0.656826	-0.217320	1.048757	-0.370672	-0.216201	1.047548	-0.692953	-0.315647	1.030208	-0.482246	-0.314940	1.027895	-0.576818	-0.318944	1.028086	-0.531281	-0.207974	0.749937	-0.332942	-0.192742	0.691639	-0.329457	-0.129520	0.704676	-0.325867	-0.136408	0.765708	-0.329229	-0.168006	0.476310	-0.330646	-0.148533	0.448522	-0.446334	-0.262080	0.310550	-0.312839	-0.285331	0.275569	-0.321393	-0.213889	0.282685	-0.316087	-0.229116	0.246168	-0.325314	-0.339398	0.109770	-0.339866	-0.294205	0.104687	-0.415726	-0.387326	0.095155	-0.396204	-0.253874	0.038951	-0.289988	-0.192050	0.044969	-0.344487	-0.166072	0.035419	-0.338358	-0.208210	0.746773	-0.720940	-0.192056	0.687445	-0.724024	-0.128565	0.698886	-0.732192	-0.137331	0.758188	-0.730663	-0.150092	0.490046	-0.723945	-0.135173	0.471845	-0.607655	-0.277682	0.286959	-0.735498	-0.295569	0.251672	-0.729744	-0.239718	0.227293	-0.727984	-0.227796	0.266765	-0.738867	-0.336321	0.115781	-0.727086	-0.305313	0.114652	-0.644825	-0.393154	0.097994	-0.670114	-0.245165	0.035949	-0.759311	-0.191077	0.045168	-0.691628	-0.166343	0.035870	-0.700080	
